<svg width="37" height="37" viewBox="0 0 37 37" fill="none" xmlns="http://www.w3.org/2000/svg">
<mask id="mask0_118_375" style="mask-type:alpha" maskUnits="userSpaceOnUse" x="0" y="0" width="37" height="37">
<rect width="37" height="37" fill="#D9D9D9"/>
</mask>
<g mask="url(#mask0_118_375)">
<path d="M29.4072 33.7625L26.4395 30.8334H9.24992C8.40201 30.8334 7.67614 30.5314 7.07232 29.9276C6.4685 29.3238 6.16659 28.5979 6.16659 27.75V26.5167C6.16659 25.6431 6.39142 24.8401 6.84107 24.1078C7.29072 23.3755 7.88812 22.8167 8.63326 22.4313C9.78951 21.8403 10.965 21.3649 12.1598 21.0052C13.3546 20.6455 14.5687 20.3757 15.802 20.1959L3.19888 7.59272C2.89055 7.28439 2.74281 6.91825 2.75565 6.49429C2.7685 6.07033 2.92909 5.70418 3.23742 5.39585C3.54576 5.08752 3.9119 4.93335 4.33586 4.93335C4.75982 4.93335 5.12597 5.08752 5.4343 5.39585L31.6041 31.6042C31.9124 31.9125 32.0666 32.2722 32.0666 32.6833C32.0666 33.0945 31.9124 33.4542 31.6041 33.7625C31.2958 34.0709 30.9296 34.225 30.5057 34.225C30.0817 34.225 29.7155 34.0709 29.4072 33.7625ZM28.3666 22.4313C29.1117 22.791 29.7027 23.337 30.1395 24.0693C30.5763 24.8016 30.8076 25.5917 30.8333 26.4396L25.6687 21.275C26.1312 21.4549 26.5873 21.6347 27.0369 21.8146C27.4866 21.9945 27.9298 22.2 28.3666 22.4313ZM21.8916 17.4979L13.3353 8.94168C13.9263 8.06807 14.6715 7.38717 15.5708 6.89897C16.4701 6.41078 17.4465 6.16668 18.4999 6.16668C20.1958 6.16668 21.6475 6.7705 22.8551 7.97814C24.0628 9.18578 24.6666 10.6375 24.6666 12.3333C24.6666 13.3868 24.4225 14.3632 23.9343 15.2625C23.4461 16.1618 22.7652 16.907 21.8916 17.4979Z" fill="#E54335"/>
</g>
</svg>
