<?xml version="1.0" encoding="utf-8"?>
<!-- Generator: Adobe Illustrator 26.0.1, SVG Export Plug-In . SVG Version: 6.00 Build 0)  -->
<svg version="1.1" id="Layer_1" xmlns="http://www.w3.org/2000/svg" xmlns:xlink="http://www.w3.org/1999/xlink" x="0px" y="0px"
	 viewBox="0 0 1135.66 520.34" style="enable-background:new 0 0 1135.66 520.34;" xml:space="preserve">
<style type="text/css">
	.st0{fill:#6495ED;}
	.st1{fill:#FFFFFF;}
</style>
<g>
	<g>
		<path class="st0" d="M273.61,345.6h5.42l13.77,38.08h-4.87l-3.77-10.48h-15.64l-3.85,10.48h-4.87L273.61,345.6z M282.88,368.8
			l-6.53-18.49l-6.61,18.49H282.88z"/>
		<path class="st0" d="M325.32,356.63l-5.06,0.24c-0.84-4.48-3.98-7.64-9.51-7.64c-6.9,0-10.66,4.95-10.66,15.38
			c0,10.22,3.71,15.43,10.93,15.43c4.66,0,8.14-2.98,9.14-7.56l5.03,0.39c-0.74,6.27-5.9,11.32-14.11,11.32
			c-10.27,0-16.25-7.53-16.25-19.64c0-12.14,5.87-19.49,15.96-19.49C319,345.07,324.64,350.26,325.32,356.63z"/>
		<path class="st0" d="M360.33,356.63l-5.06,0.24c-0.84-4.48-3.98-7.64-9.51-7.64c-6.9,0-10.66,4.95-10.66,15.38
			c0,10.22,3.71,15.43,10.93,15.43c4.66,0,8.14-2.98,9.14-7.56l5.03,0.39c-0.74,6.27-5.9,11.32-14.11,11.32
			c-10.27,0-16.25-7.53-16.25-19.64c0-12.14,5.87-19.49,15.96-19.49C354.01,345.07,359.64,350.26,360.33,356.63z"/>
		<path class="st0" d="M366.64,345.6h23.94l-0.03,4.21h-19.12v12.56h17.25v4.19h-17.25v12.8l19.64,0.05v4.27h-24.44V345.6z"/>
		<path class="st0" d="M402.08,345.6v33.76h18.04v4.32h-22.96l0.05-38.08H402.08z"/>
		<path class="st0" d="M425.48,345.6h23.94l-0.03,4.21h-19.12v12.56h17.25v4.19h-17.25v12.8l19.64,0.05v4.27h-24.44V345.6z"/>
		<path class="st0" d="M478.09,383.68l-6.98-16.46h-10.32v16.46H456V345.6h14.72c8.19,0,12.35,3.9,12.35,10.38
			c0,6.19-3.79,9.03-7.43,10.38l7.51,17.33H478.09z M478.17,356.24c0-4.48-2.95-6.72-7.87-6.72h-9.51v13.72h8.35
			C474.9,363.24,478.17,360.9,478.17,356.24z"/>
		<path class="st0" d="M501.25,345.6h5.42l13.77,38.08h-4.87l-3.77-10.48h-15.64l-3.85,10.48h-4.87L501.25,345.6z M510.52,368.8
			l-6.53-18.49l-6.61,18.49H510.52z"/>
		<path class="st0" d="M517.79,345.6h28.73v4.4h-11.64v33.68h-4.77V350h-12.32V345.6z"/>
		<path class="st0" d="M556.72,345.6v38.08h-4.79V345.6H556.72z"/>
		<path class="st0" d="M594.91,345.6v38.08h-4.27l-20.51-30.18v30.18h-4.79V345.6h4.56l20.22,29.76V345.6H594.91z"/>
		<path class="st0" d="M601.97,364.77c0-12.38,6.5-19.7,16.35-19.7c7.61,0,13.83,5.4,14.25,11.48l-5.16,0.29
			c-0.76-4.24-4.32-7.53-9.16-7.53c-6.79,0-11.14,5.24-11.14,15.14c0,10.69,4.58,15.43,11.27,15.43c6.4,0,9.56-5.14,9.72-8.93
			l0.16-3.42h-9.3v-3.53l14.25,0.05v19.62h-3.61v-5.85c-2,3.34-5.5,6.37-11.51,6.37C608.1,384.21,601.97,376.78,601.97,364.77z"/>
		<path class="st0" d="M652.79,364.77c0-12.38,6.5-19.7,16.35-19.7c7.61,0,13.83,5.4,14.25,11.48l-5.16,0.29
			c-0.76-4.24-4.32-7.53-9.16-7.53c-6.79,0-11.14,5.24-11.14,15.14c0,10.69,4.58,15.43,11.27,15.43c6.4,0,9.56-5.14,9.72-8.93
			l0.16-3.42h-9.3v-3.53l14.25,0.05v19.62h-3.61v-5.85c-2,3.34-5.5,6.37-11.51,6.37C658.92,384.21,652.79,376.78,652.79,364.77z"/>
		<path class="st0" d="M714.23,383.68l-6.98-16.46h-10.32v16.46h-4.79V345.6h14.72c8.19,0,12.35,3.9,12.35,10.38
			c0,6.19-3.79,9.03-7.43,10.38l7.51,17.33H714.23z M714.31,356.24c0-4.48-2.95-6.72-7.87-6.72h-9.51v13.72h8.35
			C711.04,363.24,714.31,360.9,714.31,356.24z"/>
		<path class="st0" d="M723.89,364.8c0-12.53,6.35-19.72,16.51-19.72c10.09,0,16.38,7.14,16.38,19.64c0,12.4-6.24,19.49-16.41,19.49
			C730.13,384.21,723.89,377.17,723.89,364.8z M751.54,364.77c0-10.66-4.11-15.54-11.14-15.54c-7.06,0-11.27,4.9-11.27,15.54
			c0,10.51,4.21,15.27,11.32,15.27C747.51,380.04,751.54,375.3,751.54,364.77z"/>
		<path class="st0" d="M795.88,383.68h-4.45l-8.4-29.68l-8.51,29.68h-4.34l-10.96-38.08h4.85l8.45,30.52l8.66-30.52h3.74l8.61,30.52
			l8.64-30.52h4.79L795.88,383.68z"/>
		<path class="st0" d="M810.93,345.6h28.73v4.4h-11.64v33.68h-4.77V350h-12.32V345.6z"/>
		<path class="st0" d="M849.86,366.09v17.59h-4.79V345.6h4.79v16.27h17.85V345.6h4.79v38.08h-4.79v-17.59H849.86z"/>
	</g>
	<g>
		<g>
			<g>
				<path class="st0" d="M202.35,279.46c-14.5-18.39-29-36.78-43.53-55.22c0.43-0.48,0.74-0.82,1.11-1.23
					c12.41,7.72,24.75,15.4,37.2,23.14c2.46-3.02,4.85-5.99,7.26-8.94c18.36-22.43,38.51-43.09,61.2-61.18
					c11.67-9.31,23.95-17.71,37.13-24.75c0.91-0.49,1.84-0.92,2.72-1.36c1.23,0.87,0.81,1.5-0.07,2.24
					c-10.37,8.71-20.36,17.83-29.84,27.5c-15.28,15.59-29.15,32.34-41.7,50.19c-10.85,15.43-20.59,31.55-29.71,48.06
					c-0.3,0.53-0.62,1.05-0.93,1.58C202.91,279.49,202.63,279.48,202.35,279.46z"/>
			</g>
		</g>
		<g>
			<path class="st0" d="M442.73,139.52l1.45,53.96h-2.78c-0.89-2.33-1.57-4.1-2.05-5.31c-2.82-7.73-5.11-13.48-6.88-17.26
				c-3.14-6.76-7.69-12.95-13.64-18.59c-4.51-4.26-9.17-7.36-14-9.29c-4.83-1.93-10.26-2.9-16.3-2.9c-9.09,0-16.98,1.97-23.66,5.91
				c-5.87,3.46-11.35,8.43-16.42,14.91c-5.07,6.48-9.22,13.86-12.43,22.15c-4.59,11.67-6.88,24.95-6.88,39.83
				c0,12.63,1.57,24.02,4.71,34.16c3.14,10.14,7.73,18.63,13.76,25.47c11.1,12.72,25.83,19.07,44.18,19.07
				c9.17,0,17.42-1.59,24.74-4.77c7.32-3.18,12.99-7.67,17.02-13.46c4.67-6.68,8.05-15.69,10.14-27.04l2.78,0.48
				c-1.53,12.72-4.99,22.81-10.38,30.3c-5.15,7.16-12.25,12.63-21.3,16.42c-9.05,3.78-19.54,5.67-31.44,5.67
				c-11.1,0-21.73-1.65-31.87-4.95c-16.17-5.31-28.81-14.91-37.9-28.79c-9.09-13.88-13.64-30.44-13.64-49.67
				c0-14.73,2.66-28.3,7.97-40.74c5.31-12.43,12.71-22.43,22.21-30c7.32-5.79,16.07-10.4,26.25-13.82
				c10.18-3.42,20.38-5.13,30.6-5.13c9.74,0,20.04,1.85,30.9,5.55l9.9,3.26c1.93,0.72,3.62,1.09,5.07,1.09
				c2.01,0,3.66-0.84,4.95-2.53c0.56-0.8,1.25-2.13,2.05-3.98H442.73z"/>
			<path class="st0" d="M594.22,139.52l1.45,53.96h-2.78c-0.89-2.33-1.57-4.1-2.05-5.31c-2.82-7.73-5.11-13.48-6.88-17.26
				c-3.14-6.76-7.69-12.95-13.64-18.59c-4.51-4.26-9.17-7.36-14-9.29c-4.83-1.93-10.26-2.9-16.3-2.9c-9.09,0-16.98,1.97-23.66,5.91
				c-5.87,3.46-11.35,8.43-16.42,14.91c-5.07,6.48-9.22,13.86-12.43,22.15c-4.59,11.67-6.88,24.95-6.88,39.83
				c0,12.63,1.57,24.02,4.71,34.16c3.14,10.14,7.73,18.63,13.76,25.47c11.1,12.72,25.83,19.07,44.18,19.07
				c9.17,0,17.42-1.59,24.74-4.77c7.32-3.18,12.99-7.67,17.02-13.46c4.67-6.68,8.05-15.69,10.14-27.04l2.78,0.48
				c-1.53,12.72-4.99,22.81-10.38,30.3c-5.15,7.16-12.25,12.63-21.3,16.42c-9.05,3.78-19.54,5.67-31.44,5.67
				c-11.1,0-21.73-1.65-31.87-4.95c-16.17-5.31-28.81-14.91-37.9-28.79c-9.09-13.88-13.64-30.44-13.64-49.67
				c0-14.73,2.66-28.3,7.97-40.74c5.31-12.43,12.71-22.43,22.21-30c7.32-5.79,16.07-10.4,26.25-13.82
				c10.18-3.42,20.38-5.13,30.6-5.13c9.74,0,20.04,1.85,30.9,5.55l9.9,3.26c1.93,0.72,3.62,1.09,5.07,1.09
				c2.01,0,3.66-0.84,4.95-2.53c0.56-0.8,1.25-2.13,2.05-3.98H594.22z"/>
			<path class="st0" d="M653.57,224.49v42.73c0,8.21,0.46,14.3,1.39,18.29c0.92,3.98,2.63,7.26,5.13,9.84
				c2.17,2.25,4.69,3.92,7.54,5.01c2.86,1.09,6.62,1.75,11.29,1.99v2.78h-77.13v-2.78c4.67-0.24,8.43-0.9,11.29-1.99
				c2.86-1.09,5.37-2.76,7.54-5.01c2.57-2.57,4.3-5.83,5.19-9.78c0.88-3.94,1.33-10.06,1.33-18.35v-88.96
				c0-8.29-0.44-14.4-1.33-18.35c-0.89-3.94-2.62-7.2-5.19-9.78c-2.17-2.33-4.71-4.02-7.6-5.07c-2.9-1.04-6.64-1.69-11.23-1.93
				v-2.78h58.18c9.74,0,16.13,0.04,19.19,0.12c12.47,0.56,22.25,2.25,29.33,5.07c7.97,3.22,14.14,8.03,18.53,14.42
				c4.38,6.4,6.58,13.82,6.58,22.27c0,12.55-4.75,22.61-14.24,30.18c-2.9,2.25-6.1,4.1-9.6,5.55c-3.5,1.45-8.19,2.82-14.06,4.1
				c4.83,2.01,8.41,4.1,10.74,6.28c1.85,1.69,3.54,3.8,5.07,6.34c1.53,2.53,3.82,7.02,6.88,13.46
				c7.16,14.73,12.57,25.49,16.23,32.29c3.66,6.8,6.74,11.73,9.23,14.79c2.01,2.5,3.96,4.22,5.85,5.19
				c1.89,0.97,4.49,1.61,7.79,1.93v2.78h-40.07c-2.01-4.42-3.3-7.24-3.86-8.45l-8.45-19.19c-5.07-11.51-10.18-21.69-15.33-30.54
				c-5.15-8.77-9.86-14.77-14.12-17.98c-2.17-1.61-4.51-2.76-7-3.44c-2.49-0.68-5.55-1.03-9.17-1.03H653.57z M653.57,221.84h4.59
				c9.98,0,17.12-0.56,21.43-1.69c4.3-1.13,8.35-3.46,12.13-7c8.45-8.05,12.67-18.02,12.67-29.93c0-6.36-1.23-12.33-3.68-17.92
				c-2.46-5.59-5.85-10.2-10.2-13.82c-3.38-2.73-7.4-4.65-12.07-5.73c-4.67-1.09-11.31-1.63-19.92-1.63h-4.95V221.84z"/>
			<path class="st0" d="M844.91,140.36v2.78c-4.59,0.24-8.31,0.89-11.17,1.93c-2.86,1.05-5.41,2.74-7.67,5.07
				c-3.14,3.22-5.07,7.69-5.79,13.4c-0.48,4.27-0.72,9.17-0.72,14.73v88.96c0,6.68,0.32,11.95,0.97,15.81
				c0.64,3.86,1.69,6.96,3.14,9.29c2.09,3.22,4.79,5.61,8.09,7.18c3.3,1.57,7.68,2.52,13.16,2.84v2.78h-77.13v-2.78
				c4.67-0.24,8.43-0.9,11.29-1.99c2.86-1.09,5.37-2.76,7.54-5.01c2.57-2.57,4.3-5.83,5.19-9.78c0.88-3.94,1.33-10.06,1.33-18.35
				v-88.96c0-8.29-0.44-14.4-1.33-18.35c-0.89-3.94-2.62-7.2-5.19-9.78c-2.17-2.33-4.71-4.02-7.6-5.07
				c-2.9-1.04-6.64-1.69-11.23-1.93v-2.78H844.91z"/>
			<path class="st0" d="M987.71,139.52l1.45,53.96h-2.78c-0.89-2.33-1.57-4.1-2.05-5.31c-2.82-7.73-5.11-13.48-6.88-17.26
				c-3.14-6.76-7.69-12.95-13.64-18.59c-4.51-4.26-9.17-7.36-14-9.29c-4.83-1.93-10.26-2.9-16.3-2.9c-9.09,0-16.98,1.97-23.66,5.91
				c-5.87,3.46-11.35,8.43-16.42,14.91c-5.07,6.48-9.22,13.86-12.43,22.15c-4.59,11.67-6.88,24.95-6.88,39.83
				c0,12.63,1.57,24.02,4.71,34.16c3.14,10.14,7.73,18.63,13.76,25.47c11.1,12.72,25.83,19.07,44.18,19.07
				c9.17,0,17.42-1.59,24.74-4.77c7.32-3.18,12.99-7.67,17.02-13.46c4.67-6.68,8.05-15.69,10.14-27.04l2.78,0.48
				c-1.53,12.72-4.99,22.81-10.38,30.3c-5.15,7.16-12.25,12.63-21.3,16.42c-9.05,3.78-19.54,5.67-31.44,5.67
				c-11.1,0-21.73-1.65-31.87-4.95c-16.17-5.31-28.81-14.91-37.9-28.79c-9.09-13.88-13.64-30.44-13.64-49.67
				c0-14.73,2.66-28.3,7.97-40.74c5.31-12.43,12.71-22.43,22.21-30c7.32-5.79,16.07-10.4,26.25-13.82
				c10.18-3.42,20.38-5.13,30.6-5.13c9.74,0,20.04,1.85,30.9,5.55l9.9,3.26c1.93,0.72,3.62,1.09,5.07,1.09
				c2.01,0,3.66-0.84,4.95-2.53c0.56-0.8,1.25-2.13,2.05-3.98H987.71z"/>
		</g>
		<g>
			<path class="st0" d="M309.57,300.41c-2.5-0.77-4.71-1.87-6.65-3.32c-2.74-2.1-5.28-5.2-7.62-9.31
				c-2.34-4.11-5.48-10.96-9.43-20.55L233.3,140.18h-6.89l-44.24,113.99c-4.03,10.4-7.27,18.19-9.73,23.39
				c-2.46,5.2-4.98,9.45-7.56,12.75c-3.06,4.11-6.21,7.09-9.43,8.95c-3.22,1.85-6.97,2.9-11.24,3.14v2.78h54.15v-2.78
				c-4.92-0.4-8.95-1.69-12.09-3.87c-2.26-1.61-4.05-3.71-5.38-6.29c-1.33-2.58-1.99-5.36-1.99-8.34c0-5.08,1.81-12.05,5.44-20.91
				l3.02-7.49l6.29-16.68l1.93-4.96l23.93-62.62l25.38,62.62l1.93,4.96l11.6,28.53l2.06,5.08c2.25,5.56,3.38,9.99,3.38,13.3
				c0,5.56-2.5,9.91-7.49,13.06c-2.82,1.77-7.82,2.98-14.99,3.63v2.78h79.42v-2.78C315.82,301.84,312.07,301.18,309.57,300.41z"/>
		</g>
	</g>
</g>
</svg>
