<svg width="278" height="82" viewBox="0 0 278 82" fill="none" xmlns="http://www.w3.org/2000/svg">
<path d="M42.4032 69.0472H44.1793L48.6916 81.5995H47.0957L45.8604 78.145H40.7353L39.4737 81.5995H37.8778L42.4032 69.0472ZM45.4409 76.6946L43.3011 70.5998L41.1351 76.6946H45.4409Z" fill="white"/>
<path d="M59.348 72.6831L57.6899 72.7622C57.4146 71.2854 56.3857 70.2438 54.5735 70.2438C52.3125 70.2438 51.0803 71.8755 51.0803 75.3135C51.0803 78.6823 52.2961 80.3997 54.662 80.3997C56.189 80.3997 57.3294 79.4174 57.6571 77.9077L59.3054 78.0363C59.0629 80.103 57.372 81.7677 54.6817 81.7677C51.3163 81.7677 49.3567 79.2856 49.3567 75.2937C49.3567 71.292 51.2802 68.8693 54.5866 68.8693C57.277 68.8726 59.1252 70.5833 59.348 72.6831Z" fill="white"/>
<path d="M70.8209 72.6831L69.1628 72.7622C68.8875 71.2854 67.8586 70.2438 66.0464 70.2438C63.7854 70.2438 62.5532 71.8755 62.5532 75.3135C62.5532 78.6823 63.769 80.3997 66.1349 80.3997C67.6619 80.3997 68.8023 79.4174 69.13 77.9077L70.7783 78.0363C70.5358 80.103 68.8449 81.7677 66.1546 81.7677C62.7892 81.7677 60.8296 79.2856 60.8296 75.2937C60.8296 71.292 62.7531 68.8693 66.0595 68.8693C68.7499 68.8726 70.5948 70.5833 70.8209 72.6831Z" fill="white"/>
<path d="M72.8882 69.0472H80.7331L80.7232 70.435H74.4578V74.5751H80.1105V75.9563H74.4578V80.1755L80.8936 80.192V81.5995H72.8849V69.0472H72.8882Z" fill="white"/>
<path d="M84.5015 69.0472V80.1755H90.4131V81.5995H82.8893L82.9057 69.0472H84.5015Z" fill="white"/>
<path d="M92.1695 69.0472H100.014L100.005 70.435H93.7392V74.5751H99.3918V75.9563H93.7392V80.1755L100.175 80.192V81.5995H92.1663V69.0472H92.1695Z" fill="white"/>
<path d="M109.409 81.5995L107.122 76.1738H103.74V81.5995H102.171V69.0472H106.994C109.678 69.0472 111.041 70.3328 111.041 72.4688C111.041 74.5092 109.799 75.4453 108.607 75.8903L111.067 81.6028H109.409V81.5995ZM109.436 72.5545C109.436 71.0778 108.469 70.3394 106.857 70.3394H103.74V74.8619H106.477C108.364 74.8619 109.436 74.0906 109.436 72.5545Z" fill="white"/>
<path d="M116.999 69.0472H118.775L123.287 81.5995H121.691L120.456 78.145H115.331L114.069 81.5995H112.473L116.999 69.0472ZM120.036 76.6946L117.896 70.5998L115.73 76.6946H120.036Z" fill="white"/>
<path d="M122.419 69.0472H131.834V70.4976H128.019V81.5995H126.456V70.4976H122.419V69.0472Z" fill="white"/>
<path d="M135.176 69.0472V81.5995H133.606V69.0472H135.176Z" fill="white"/>
<path d="M147.69 69.0472V81.5995H146.291L139.57 71.6513V81.5995H138.001V69.0472H139.495L146.121 78.857V69.0472H147.69Z" fill="white"/>
<path d="M150.004 75.3663C150.004 71.2854 152.134 68.8726 155.362 68.8726C157.855 68.8726 159.894 70.6526 160.031 72.6567L158.34 72.7523C158.091 71.3547 156.925 70.2702 155.339 70.2702C153.114 70.2702 151.688 71.9974 151.688 75.2608C151.688 78.7845 153.189 80.347 155.381 80.347C157.478 80.347 158.514 78.6527 158.566 77.4034L158.619 76.276H155.571V75.1124L160.241 75.1289V81.5963H159.058V79.6679C158.402 80.7689 157.256 81.7677 155.286 81.7677C152.013 81.7743 150.004 79.3251 150.004 75.3663Z" fill="white"/>
<path d="M166.657 75.3663C166.657 71.2854 168.787 68.8726 172.015 68.8726C174.508 68.8726 176.547 70.6526 176.684 72.6567L174.993 72.7523C174.744 71.3547 173.578 70.2702 171.992 70.2702C169.767 70.2702 168.341 71.9974 168.341 75.2608C168.341 78.7845 169.842 80.347 172.034 80.347C174.131 80.347 175.167 78.6527 175.219 77.4034L175.272 76.276H172.224V75.1124L176.894 75.1289V81.5963H175.711V79.6679C175.056 80.7689 173.909 81.7677 171.939 81.7677C168.666 81.7743 166.657 79.3251 166.657 75.3663Z" fill="white"/>
<path d="M186.79 81.5995L184.503 76.1738H181.121V81.5995H179.552V69.0472H184.375C187.059 69.0472 188.422 70.3328 188.422 72.4688C188.422 74.5092 187.18 75.4453 185.988 75.8903L188.449 81.6028H186.79V81.5995ZM186.817 72.5545C186.817 71.0778 185.85 70.3394 184.238 70.3394H181.121V74.8619H183.858C185.745 74.8619 186.817 74.0906 186.817 72.5545Z" fill="white"/>
<path d="M189.956 75.3761C189.956 71.2459 192.036 68.8759 195.366 68.8759C198.672 68.8759 200.733 71.2294 200.733 75.3498C200.733 79.4372 198.689 81.7743 195.356 81.7743C192 81.7743 189.956 79.4537 189.956 75.3761ZM199.016 75.3663C199.016 71.8524 197.669 70.2438 195.366 70.2438C193.052 70.2438 191.673 71.859 191.673 75.3663C191.673 78.8307 193.052 80.3997 195.382 80.3997C197.696 80.3997 199.016 78.8373 199.016 75.3663Z" fill="white"/>
<path d="M213.546 81.5995H212.088L209.336 71.8161L206.547 81.5995H205.125L201.533 69.0472H203.123L205.892 79.1075L208.729 69.0472H209.955L212.776 79.1075L215.608 69.0472H217.177L213.546 81.5995Z" fill="white"/>
<path d="M218.478 69.0472H227.893V70.4976H224.079V81.5995H222.515V70.4976H218.478V69.0472Z" fill="white"/>
<path d="M231.235 75.8013V81.5995H229.665V69.0472H231.235V74.4103H237.084V69.0472H238.654V81.5995H237.084V75.8013H231.235Z" fill="white"/>
<path d="M19.0519 47.2457C14.3003 41.1839 9.54882 35.122 4.78748 29.0436C4.92838 28.8854 5.02996 28.7733 5.15121 28.6382C9.21785 31.1829 13.2616 33.7144 17.3413 36.2658C18.1474 35.2703 18.9306 34.2913 19.7203 33.3189C25.7367 25.9253 32.3397 19.1152 39.775 13.1522C43.5992 10.0833 47.6232 7.31442 51.9422 4.99383C52.2404 4.83231 52.5451 4.69057 52.8335 4.54553C53.2365 4.83231 53.0989 5.03998 52.8105 5.2839C49.4124 8.15498 46.1388 11.1612 43.0323 14.3487C38.0251 19.4876 33.4801 25.0089 29.3676 30.8928C25.8121 35.979 22.6204 41.2926 19.6319 46.7348C19.5336 46.9095 19.4287 47.0809 19.3271 47.2556C19.2354 47.2556 19.1436 47.2523 19.0519 47.2457Z" fill="white"/>
<path d="M97.8223 1.11744L98.2975 18.9042H97.3865C97.0948 18.1362 96.872 17.5528 96.7147 17.1539C95.7906 14.6059 95.0402 12.7105 94.4602 11.4645C93.4313 9.23622 91.9403 7.19581 89.9905 5.3367C88.5126 3.93248 86.9856 2.91063 85.4028 2.27444C83.8201 1.63826 82.0407 1.31852 80.0615 1.31852C77.0828 1.31852 74.4973 1.96788 72.3083 3.26662C70.3848 4.40714 68.589 6.0454 66.9276 8.1814C65.2663 10.3174 63.9063 12.7501 62.8544 15.4827C61.3503 19.3295 60.5999 23.707 60.5999 28.6118C60.5999 32.7751 61.1144 36.5295 62.1434 39.872C63.1723 43.2144 64.6764 46.013 66.6524 48.2676C70.2897 52.4605 75.1166 54.5537 81.1298 54.5537C84.1347 54.5537 86.8381 54.0296 89.2368 52.9813C91.6355 51.9331 93.4935 50.4531 94.8141 48.5445C96.3444 46.3426 97.452 43.3726 98.1369 39.6314L99.0479 39.7896C98.5465 43.9825 97.4127 47.3084 95.6465 49.7774C93.9588 52.1375 91.6322 53.9406 88.6666 55.1899C85.701 56.4359 82.2636 57.0589 78.3641 57.0589C74.7267 57.0589 71.2433 56.515 67.9206 55.4272C62.6218 53.6769 58.4798 50.5124 55.5011 45.9372C52.5224 41.3619 51.0314 35.9032 51.0314 29.5645C51.0314 24.709 51.903 20.236 53.6431 16.1354C55.3831 12.0381 57.808 8.74177 60.9211 6.24648C63.3198 4.33792 66.1871 2.81833 69.523 1.691C72.8588 0.563663 76.2013 0 79.5503 0C82.742 0 86.1172 0.609811 89.6759 1.82944L92.9201 2.90404C93.5525 3.14137 94.1063 3.26333 94.5815 3.26333C95.2401 3.26333 95.7808 2.98644 96.2035 2.42937C96.387 2.16566 96.6131 1.72726 96.8753 1.11744H97.8223Z" fill="white"/>
<path d="M147.464 1.11744L147.939 18.9042H147.028C146.737 18.1362 146.514 17.5528 146.357 17.1539C145.433 14.6059 144.682 12.7105 144.102 11.4645C143.073 9.23622 141.582 7.19581 139.632 5.3367C138.154 3.93248 136.627 2.91063 135.045 2.27444C133.462 1.63826 131.683 1.31852 129.703 1.31852C126.725 1.31852 124.139 1.96788 121.95 3.26662C120.027 4.40714 118.231 6.0454 116.569 8.1814C114.908 10.3174 113.548 12.7501 112.496 15.4827C110.992 19.3295 110.242 23.707 110.242 28.6118C110.242 32.7751 110.756 36.5295 111.785 39.872C112.814 43.2144 114.318 46.013 116.294 48.2676C119.932 52.4605 124.758 54.5537 130.772 54.5537C133.777 54.5537 136.48 54.0296 138.879 52.9813C141.277 51.9331 143.135 50.4531 144.456 48.5445C145.986 46.3426 147.094 43.3726 147.779 39.6314L148.69 39.7896C148.188 43.9825 147.055 47.3084 145.288 49.7774C143.601 52.1375 141.274 53.9406 138.309 55.1899C135.343 56.4359 131.905 57.0589 128.006 57.0589C124.369 57.0589 120.885 56.515 117.562 55.4272C112.264 53.6769 108.122 50.5124 105.143 45.9372C102.164 41.3619 100.673 35.9032 100.673 29.5645C100.673 24.709 101.545 20.236 103.285 16.1354C105.025 12.0381 107.45 8.74177 110.563 6.24648C112.962 4.33792 115.829 2.81833 119.165 1.691C122.501 0.563663 125.843 0 129.192 0C132.384 0 135.759 0.609811 139.318 1.82944L142.562 2.90404C143.194 3.14137 143.748 3.26333 144.223 3.26333C144.882 3.26333 145.423 2.98644 145.845 2.42937C146.029 2.16566 146.255 1.72726 146.517 1.11744H147.464Z" fill="white"/>
<path d="M166.913 29.1261V43.2112C166.913 45.9175 167.063 47.9249 167.368 49.2401C167.67 50.5521 168.23 51.6332 169.049 52.4837C169.76 53.2254 170.586 53.7758 171.52 54.1351C172.457 54.4944 173.689 54.712 175.219 54.7911V55.7075H149.945V54.7911C151.475 54.712 152.707 54.4944 153.644 54.1351C154.582 53.7758 155.404 53.2254 156.115 52.4837C156.957 51.6365 157.524 50.562 157.816 49.2599C158.104 47.9612 158.252 45.9438 158.252 43.2112V13.8874C158.252 11.1547 158.107 9.1407 157.816 7.83867C157.524 6.53993 156.957 5.46533 156.115 4.61489C155.404 3.84685 154.572 3.28978 153.625 2.94367C152.674 2.60085 151.449 2.38659 149.945 2.30748V1.39111H169.01C172.201 1.39111 174.295 1.4043 175.298 1.43067C179.384 1.61526 182.589 2.17233 184.909 3.10189C187.521 4.16329 189.543 5.74882 190.981 7.85515C192.417 9.96478 193.138 12.4106 193.138 15.196C193.138 19.3328 191.581 22.6489 188.471 25.1442C187.521 25.8859 186.472 26.4957 185.325 26.9737C184.179 27.4516 182.642 27.9032 180.718 28.3251C182.301 28.9877 183.474 29.6766 184.238 30.3952C184.844 30.9523 185.398 31.6478 185.899 32.4851C186.4 33.319 187.151 34.7991 188.153 36.9219C190.5 41.7773 192.273 45.3241 193.472 47.5656C194.671 49.8071 195.68 51.4322 196.496 52.4408C197.155 53.2649 197.794 53.8319 198.413 54.1516C199.033 54.4714 199.885 54.6823 200.966 54.7878V55.7042H187.836C187.177 54.2472 186.754 53.3177 186.571 52.9188L183.802 46.5932C182.14 42.7992 180.466 39.4435 178.778 36.5263C177.091 33.6355 175.547 31.6577 174.151 30.5996C173.44 30.0689 172.673 29.6898 171.857 29.4657C171.041 29.2415 170.039 29.1261 168.852 29.1261H166.913ZM166.913 28.2526H168.417C171.687 28.2526 174.027 28.068 175.439 27.6955C176.848 27.3231 178.175 26.555 179.414 25.3881C182.183 22.7346 183.566 19.4482 183.566 15.5223C183.566 13.4259 183.163 11.458 182.36 9.61537C181.554 7.77274 180.443 6.25315 179.017 5.05989C177.91 4.16 176.593 3.52711 175.062 3.17111C173.532 2.81181 171.356 2.63381 168.535 2.63381H166.913V28.2526Z" fill="white"/>
<path d="M229.613 1.39441V2.31078C228.109 2.38989 226.89 2.60415 225.953 2.94697C225.016 3.29308 224.18 3.85015 223.439 4.61818C222.41 5.67959 221.778 7.15303 221.542 9.03522C221.385 10.4427 221.306 12.0579 221.306 13.8907V43.2145C221.306 45.4164 221.411 47.1536 221.624 48.426C221.834 49.6983 222.178 50.7202 222.653 51.4882C223.338 52.5496 224.223 53.3374 225.304 53.855C226.385 54.3725 227.821 54.6856 229.616 54.7911V55.7075H204.342V54.7911C205.872 54.712 207.104 54.4944 208.041 54.1351C208.978 53.7758 209.801 53.2254 210.512 52.4837C211.354 51.6365 211.921 50.562 212.213 49.2599C212.501 47.9612 212.649 45.9438 212.649 43.2112V13.8874C212.649 11.1547 212.504 9.1407 212.213 7.83867C211.921 6.53993 211.354 5.46533 210.512 4.61489C209.801 3.84685 208.969 3.28978 208.022 2.94367C207.071 2.60085 205.846 2.38659 204.342 2.30748V1.39111H229.613V1.39441Z" fill="white"/>
<path d="M276.407 1.11744L276.882 18.9042H275.971C275.68 18.1362 275.457 17.5528 275.3 17.1539C274.375 14.6059 273.625 12.7105 273.045 11.4645C272.016 9.23622 270.525 7.19581 268.575 5.3367C267.097 3.93248 265.57 2.91063 263.988 2.27444C262.405 1.63826 260.626 1.31852 258.646 1.31852C255.668 1.31852 253.082 1.96788 250.893 3.26662C248.97 4.40714 247.174 6.0454 245.512 8.1814C243.851 10.3174 242.491 12.7501 241.439 15.4827C239.935 19.3295 239.185 23.707 239.185 28.6118C239.185 32.7751 239.699 36.5295 240.728 39.872C241.757 43.2144 243.261 46.013 245.237 48.2676C248.875 52.4605 253.701 54.5537 259.715 54.5537C262.72 54.5537 265.423 54.0296 267.822 52.9813C270.22 51.9331 272.078 50.4531 273.399 48.5445C274.929 46.3426 276.037 43.3726 276.722 39.6314L277.633 39.7896C277.131 43.9825 275.998 47.3084 274.231 49.7774C272.544 52.1375 270.217 53.9406 267.252 55.1899C264.286 56.4359 260.848 57.0589 256.949 57.0589C253.312 57.0589 249.828 56.515 246.505 55.4272C241.207 53.6769 237.065 50.5124 234.086 45.9372C231.107 41.3619 229.616 35.9032 229.616 29.5645C229.616 24.709 230.488 20.236 232.228 16.1354C233.968 12.0381 236.393 8.74177 239.506 6.24648C241.905 4.33792 244.772 2.81833 248.108 1.691C251.444 0.563663 254.786 0 258.135 0C261.327 0 264.702 0.609811 268.261 1.82944L271.505 2.90404C272.137 3.14137 272.691 3.26333 273.166 3.26333C273.825 3.26333 274.366 2.98644 274.788 2.42937C274.972 2.16566 275.198 1.72726 275.46 1.11744H276.407Z" fill="white"/>
<path d="M54.1869 54.1514C53.3677 53.8976 52.6435 53.535 52.0078 53.057C51.1099 52.3648 50.2776 51.3429 49.5108 49.9882C48.744 48.6334 47.715 46.3754 46.4207 43.2143L29.194 1.33484H26.9362L12.4391 38.9093C11.1185 42.3375 10.0568 44.9053 9.25071 46.6193C8.44459 48.3334 7.61881 49.7343 6.77337 50.8221C5.77063 52.1769 4.7384 53.1592 3.68324 53.7723C2.62808 54.3821 1.39924 54.7282 0 54.8073V55.7237H17.7444V54.8073C16.1322 54.6755 14.8116 54.2503 13.7827 53.5317C13.0421 53.001 12.4555 52.3087 12.0197 51.4583C11.5839 50.6079 11.3676 49.6915 11.3676 48.7092C11.3676 47.0347 11.9607 44.7372 13.1502 41.8166L14.1399 39.3477L16.201 33.8495L16.8335 32.2145L24.6751 11.5731L32.9919 32.2145L33.6243 33.8495L37.4256 43.2538L38.1006 44.9283C38.8379 46.7611 39.2082 48.2213 39.2082 49.3124C39.2082 51.1452 38.389 52.579 36.7538 53.6174C35.8297 54.2008 34.1912 54.5997 31.8417 54.8139V55.7303H57.8669V54.8139C56.235 54.6228 55.0062 54.4052 54.1869 54.1514Z" fill="white"/>
</svg>
